<svg xmlns="http://www.w3.org/2000/svg" version="1.1" xmlns:xlink="http://www.w3.org/1999/xlink" xmlns:svgjs="http://svgjs.com/svgjs" width="1440" height="560" preserveAspectRatio="none" viewBox="0 0 1440 560">
    <g mask="url(&quot;#SvgjsMask1002&quot;)" fill="none">
        <path d="M114.55 140C114.55 103.2 44.5 97.47 0 43.08C-12.78 27.47 -16.47 5.07 0 0C53.53 -16.47 70 0 140 0C210 0 210 0 280 0C333.2 0 336.7 -9.78 386.4 0C406.7 3.99 399.85 27.54 420 27.54C481.27 27.54 484.51 12.73 549.23 0C554.51 -1.04 554.62 0 560 0C567 0 569.79 -5.32 574 0C625.14 64.68 647.07 63.29 670.7 140C690.2 203.29 650.19 214.72 660.27 280C664.84 309.63 679.24 329.83 700 329.83C722.08 329.83 722.97 304.92 745.94 280C792.97 228.99 786.32 219.68 840 177.97C876.42 149.68 926.15 166.23 926.15 140C926.15 107.25 884.89 97.83 840 60C801.82 27.83 760 16.67 760 0C760 -13.33 800 0 840 0C910 0 910 0 980 0C1050 0 1050 0 1120 0C1190 0 1190 0 1260 0C1330 0 1330 0 1400 0C1421.39 0 1424.46 -9.35 1442.78 0C1494.46 26.37 1509.01 26.8 1540 71.43C1557.62 96.8 1540 105.72 1540 140C1540 210 1540 210 1540 280C1540 350 1540 350 1540 420C1540 490 1575 525 1540 560C1505 595 1470 560 1400 560C1347.5 560 1344.93 568.42 1295 560C1274.93 556.62 1277.78 547.78 1260 536.4C1190.28 491.78 1175.01 441.24 1120 448C1078.96 453.04 1108.8 527.28 1067.91 560C1038.8 583.28 1023.95 560 980 560C910 560 910 560 840 560C770 560 770 560 700 560C692.5 560 688.65 566.15 685 560C647.09 496.15 659.39 483.28 616.88 420C596.89 390.24 587.85 373.92 560 373.92C533.77 373.92 516.32 389.32 508.73 420C493.3 482.36 540.51 518.1 513.95 560C496.14 588.1 466.98 560 420 560C350 560 350 560 280 560C229.44 560 219.45 578.03 178.89 560C149.45 546.92 158.18 497.78 140 497.78C122.64 497.78 135.39 547.75 107.82 560C65.39 578.86 23.45 590.46 0 560C-30.46 520.46 0 490 0 420C0 350 0 350 0 280C0 227.75 -26.67 208.09 0 175.49C30.6 138.09 114.55 169.41 114.55 140" stroke="rgba(58, 58, 61, 1)" stroke-width="2"></path>
        <path d="M1120 132.22C1114.25 132.22 1107.27 137.36 1107.27 140C1107.27 142.28 1113.71 142.06 1120 142.06C1123.41 142.06 1126.67 141.99 1126.67 140C1126.67 137.07 1123.95 132.22 1120 132.22" stroke="rgba(58, 58, 61, 1)" stroke-width="2"></path>
        <path d="M140 183.08C128.56 183.08 119.68 233.05 119.68 280C119.68 300.04 128.87 317.06 140 317.06C151.88 317.06 165.71 300.78 165.71 280C165.71 233.79 151.58 183.08 140 183.08" stroke="rgba(58, 58, 61, 1)" stroke-width="2"></path>
        <path d="M1400 370.32C1387.06 370.32 1381.88 396.22 1381.88 420C1381.88 434.81 1388.38 447.5 1400 447.5C1416.69 447.5 1438.5 436.57 1438.5 420C1438.5 397.98 1415.37 370.32 1400 370.32" stroke="rgba(58, 58, 61, 1)" stroke-width="2"></path>
        <path d="M280 60.67C237.03 60.67 178.89 16.33 178.89 0C178.89 -14 229.44 0 280 0C298.2 0 316.4 -10.3 316.4 0C316.4 20.03 305.78 60.67 280 60.67" stroke="rgba(58, 58, 61, 1)" stroke-width="2"></path>
        <path d="M338.05 140C373.85 106.9 374.91 103.18 420 84.92C485.88 58.25 501.33 34.76 560 50.15C606.33 62.3 618.17 88.65 630 140C644.65 203.58 636.08 217.4 612.97 280C601.08 312.21 586.81 305.17 560 329.62C510.05 375.17 482.05 363.46 459.44 420C435.99 478.65 482.59 507.82 467.89 560C462.87 577.82 443.94 560 420 560C350 560 350 560 280 560C253.75 560 244.39 576.89 227.5 560C174.39 506.89 137.63 488.89 140 420C142.45 348.89 189.19 350.42 237.14 280C259.19 247.61 257.11 246.14 280 214.38C307.56 176.14 303.85 171.63 338.05 140" stroke="rgba(58, 58, 61, 1)" stroke-width="2"></path>
        <path d="M980 84.74C933.71 84.74 890.56 24.55 890.56 0C890.56 -17.82 935.28 0 980 0C1031.93 0 1083.87 -18.5 1083.87 0C1083.87 23.87 1030.36 84.74 980 84.74" stroke="rgba(58, 58, 61, 1)" stroke-width="2"></path>
        <path d="M1260 122.5C1201.4 63.09 1146.05 36.43 1146.05 0C1146.05 -24.82 1203.03 0 1260 0C1310 0 1317.65 -15.6 1360 0C1387.65 10.19 1374.83 31.38 1400 51.58C1462.03 101.38 1534.4 91.43 1534.4 140C1534.4 193.57 1473.4 209.55 1400 255.86C1362.45 279.55 1324.02 248.11 1312.5 280C1294.37 330.18 1355.45 359.07 1340.71 420C1329.2 467.61 1302.2 497.08 1260 497.08C1212.85 497.08 1208.56 461.15 1162 420C1138.56 399.28 1142.62 373.33 1120 373.33C1093.88 373.33 1085.32 390.93 1064.53 420C1018.57 484.27 1027.13 492.73 986.51 560C984.86 562.73 983.26 560 980 560C910 560 910 560 840 560C834.16 560 833.21 563.07 828.33 560C763.21 519.07 756.76 522.69 700 472C678.38 452.69 671.56 444.25 671.56 420C671.56 402.83 685.78 404.57 700 389.15C750.31 334.57 750.32 334.58 800.63 280C820.32 258.65 813.78 245.47 840 237.29C903.47 217.47 910.65 234.84 980 224C1050.65 212.96 1050.19 192.66 1120 193.53C1190.19 194.41 1209.65 243.92 1260 227.5C1291.72 217.15 1284.14 179.52 1284.14 140C1284.14 127.02 1270.44 133.09 1260 122.5" stroke="rgba(58, 58, 61, 1)" stroke-width="2"></path>
        <path d="M0 224.79C19.07 224.79 39.11 246.37 63.23 280C109.11 343.97 138.9 349.55 140 420C141.08 489.55 116.58 511.01 67.59 560C46.58 581.01 11 582.79 0 560C-22.79 512.79 0 490 0 420C0 350 0 350 0 280C0 252.39 -12.54 224.79 0 224.79" stroke="rgba(58, 58, 61, 1)" stroke-width="2"></path>
        <path d="M1526 420C1537.4 410.5 1536.29 393.33 1540 393.33C1543.29 393.33 1540 406.66 1540 420C1540 490 1575 525 1540 560C1505 595 1470 560 1400 560C1376.66 560 1353.33 570.14 1353.33 560C1353.33 545.14 1373.55 531.45 1400 510C1459.88 461.45 1467.4 468.84 1526 420" stroke="rgba(58, 58, 61, 1)" stroke-width="2"></path>
        <path d="M427.37 140C489.6 116.37 499.84 102.39 560 102.39C580.81 102.39 588.59 117.68 589.3 140C591.43 206.48 579.57 211.12 565.68 280C564.92 283.78 563.35 283.34 560 285.32C490.51 326.42 481.01 367.75 420 366.15C379.9 365.09 357.78 325.6 357.78 280C357.78 220.3 389.04 217.85 420 155.56C423.83 147.85 419.6 142.95 427.37 140" stroke="rgba(58, 58, 61, 1)" stroke-width="2"></path>
        <path d="M1260 35C1244.29 35 1227.44 10.41 1227.44 0C1227.44 -7.09 1243.72 0 1260 0C1274.28 0 1288.57 -6.78 1288.57 0C1288.57 10.72 1274.85 35 1260 35" stroke="rgba(58, 58, 61, 1)" stroke-width="2"></path>
        <path d="M0 274.08C2.04 274.08 6.32 275.6 6.77 280C13.82 348.56 9.86 350.08 15 420C20.15 490.08 33.64 501.41 27.36 560C26.14 571.41 2.24 571.44 0 560C-11.44 501.44 0 490 0 420C0 350 0 350 0 280C0 277.04 -1.34 274.08 0 274.08" stroke="rgba(58, 58, 61, 1)" stroke-width="2"></path>
        <path d="M1045.63 280C1045.63 261.94 1083.52 245 1120 245C1151.22 245 1181.03 261.99 1181.03 280C1181.03 298.38 1151.31 317.78 1120 317.78C1083.61 317.78 1045.63 298.33 1045.63 280" stroke="rgba(58, 58, 61, 1)" stroke-width="2"></path>
        <path d="M812 420C812 402.28 817.74 383.9 840 378C901.74 361.63 921.06 359.83 980 375.45C1000.3 380.83 998.49 398.29 998.49 420C998.49 436.9 996.66 450.97 980 452.67C917.42 459.05 908.33 449.44 840 436.15C824.33 433.1 812 431.35 812 420" stroke="rgba(58, 58, 61, 1)" stroke-width="2"></path>
        <path d="M1212 420C1212 387.39 1237.56 346.96 1260 346.96C1281.32 346.96 1299.53 386.59 1299.53 420C1299.53 441.99 1280.67 457.75 1260 457.75C1236.91 457.75 1212 442.78 1212 420" stroke="rgba(58, 58, 61, 1)" stroke-width="2"></path>
        <path d="M276.11 560C276.11 538.45 262.15 516.22 280 513.33C334.1 504.56 359.12 516.64 420 536.67C430.04 539.97 421.84 549.19 421.84 560C421.84 560.85 420.92 560 420 560C350 560 350 560 280 560C278.06 560 276.11 561.79 276.11 560" stroke="rgba(58, 58, 61, 1)" stroke-width="2"></path>
    </g>
    <defs>
        <mask id="SvgjsMask1002">
            <rect width="1440" height="560" fill="#ffffff"></rect>
        </mask>
    </defs>
</svg>